<svg xmlns="http://www.w3.org/2000/svg" viewBox="0 0 48 48"><path fill="#455a64" d="M10,18c-0.6,0-1-0.4-1-1v-7c0-0.6,0.4-1,1-1s1,0.4,1,1v7C11,17.6,10.6,18,10,18z M39,17v-7 c0-0.6-0.4-1-1-1s-1,0.4-1,1v7c0,0.6,0.4,1,1,1S39,17.6,39,17z"/><path fill="#90a4ae" d="M39 39h-2c0-7.9-1.5-16-13-16-11.5 0-13 8.1-13 16H9c0-4.9 0-18 15-18S39 34.1 39 39zM11 18H9c-.6 0-1-.4-1-1v-3c0-.6.4-1 1-1h2c.6 0 1 .4 1 1v3C12 17.6 11.6 18 11 18zM39 18h-2c-.6 0-1-.4-1-1v-3c0-.6.4-1 1-1h2c.6 0 1 .4 1 1v3C40 17.6 39.6 18 39 18z"/><path fill="#b0bec5" d="M9,12H0v-2h9V12z M37,10h-9v2h9V10z M42,17c0,1.1-0.9,2-2,2c0,0-9-0.1-9,3v2c0,1.1-0.9,2-2,2H19 c-1.1,0-2-0.9-2-2v-2c0-3.1-9-3-9-3c-1.1,0-2-0.9-2-2s0.9-2,2-2h32C41.1,15,42,15.9,42,17z M20,12h-9v-2h9V12z M48,12h-9v-2h9V12z"/><path fill="#ff3d00" d="M15,15v2c0,0.6-0.4,1-1,1s-1-0.4-1-1v-2H15z M33,15v2c0,0.6,0.4,1,1,1s1-0.4,1-1v-2H33z"/></svg>