<?xml version="1.0" encoding="utf-8"?>
<svg xmlns="http://www.w3.org/2000/svg" viewBox="0 0 30 30" fill="#042eae"><path d="M 14 3 L 14 8 A 1.0001 1.0001 0 1 0 16 8 L 16 5.2011719 C 21.038002 5.7243045 25 9.8205415 25 15 C 25 20.534534 20.534534 25 15 25 C 9.4654664 25 5 20.534534 5 15 C 5 12.546287 5.8819179 10.312748 7.3457031 8.5742188 A 1.0008008 1.0008008 0 1 0 5.8144531 7.2851562 C 4.0602383 9.3686271 3 12.065713 3 15 C 3 21.615466 8.3845336 27 15 27 C 21.615466 27 27 21.615466 27 15 C 27 8.3845336 21.615466 3 15 3 L 14 3 z M 9.3945312 9.0078125 C 9.1017031 9.0505156 8.883125 9.3939687 9.078125 9.6992188 C 10.542125 11.996219 13.041937 15.870062 13.585938 16.414062 C 14.366937 17.195062 15.633062 17.195062 16.414062 16.414062 C 17.195062 15.633063 17.195062 14.366938 16.414062 13.585938 C 15.870062 13.040937 11.996219 10.542125 9.6992188 9.078125 C 9.5974687 9.013125 9.4921406 8.9935781 9.3945312 9.0078125 z" fill="#042eae"/></svg>
